# This file uses centimeters as units for non-parametric coordinates.

mtllib bunker_door.mtl
g default
v -21.123915 -2.048091 57.266267
v 21.123916 -2.048091 57.266267
v 21.123916 37.385908 24.111347
v -21.123915 37.385908 24.111347
v -21.123915 19.147537 39.445632
v -21.123915 16.190285 41.931996
v 21.123916 19.147537 39.445632
v 21.123916 16.190285 41.931996
v -21.123915 29.006028 31.156907
v -21.123915 26.048784 33.643272
v 21.123916 29.006028 31.156907
v 21.123916 26.048784 33.643272
v -21.123915 9.289038 47.734356
v -21.123915 6.331789 50.220721
v 21.123916 9.289038 47.734356
v 21.123916 6.331789 50.220721
v 21.123916 29.391500 31.615383
v -21.123915 29.391500 31.615383
v 21.123916 37.771380 24.569823
v -21.123915 37.771380 24.569823
v 21.123916 9.674510 48.192827
v -21.123915 9.674510 48.192827
v 21.123916 16.575757 42.390468
v -21.123915 16.575757 42.390468
v 21.123916 19.533009 39.904103
v -21.123915 19.533009 39.904103
v 21.123916 26.434256 34.101743
v -21.123915 26.434256 34.101743
v -21.123915 -1.662621 57.724738
v 21.123916 -1.662621 57.724738
v 21.123916 6.717259 50.679196
v -21.123915 6.717259 50.679196
v -22.591746 -2.850922 59.092852
v 22.591742 -2.850922 59.092852
v 18.890787 0.603539 56.188443
v -18.890788 0.603539 56.188443
v 22.591742 39.323221 23.634127
v 18.890787 35.868730 26.538540
v -22.591746 39.323221 23.634127
v -18.890788 35.868730 26.538540
v -22.591746 -3.571025 58.236360
v 22.591742 -3.571025 58.236360
v -18.890788 0.105238 55.595769
v 18.890787 0.105238 55.595769
v 22.591742 38.603115 22.777646
v 18.890787 35.370448 25.945857
v -22.591746 38.603115 22.777646
v -18.890788 35.370448 25.945857
v -16.851066 34.337338 26.364167
v 16.851060 34.337338 26.364167
v 16.851060 0.694747 54.649827
v -16.851066 0.694747 54.649827
v -16.851068 32.759034 24.486951
v 16.851055 32.759034 24.486951
v 16.851055 -0.883560 52.772606
v -16.851068 -0.883560 52.772606
vt 0.625000 0.196874
vt 0.375000 0.250000
vt 0.625000 0.250000
vt 0.375000 0.196874
vt 0.375000 0.071874
vt 0.625000 0.071874
vt 0.375000 0.115626
vt 0.625000 0.115626
vt 0.375000 0.134374
vt 0.625000 0.134374
vt 0.375000 0.178126
vt 0.625000 0.178126
vt 0.375000 0.000000
vt 0.625000 0.000000
vt 0.375000 0.053126
vt 0.625000 0.053126
vt 0.375000 0.196874
vt 0.625000 0.196874
vt 0.625000 0.250000
vt 0.375000 0.250000
vt 0.375000 0.071874
vt 0.625000 0.071874
vt 0.625000 0.115626
vt 0.375000 0.115626
vt 0.375000 0.134374
vt 0.625000 0.134374
vt 0.625000 0.178126
vt 0.375000 0.178126
vt 0.375000 0.000000
vt 0.625000 0.000000
vt 0.625000 0.053126
vt 0.375000 0.053126
vt 0.375000 0.000000
vt 0.625000 0.000000
vt 0.625000 0.000000
vt 0.375000 0.000000
vt 0.625000 0.250000
vt 0.625000 0.250000
vt 0.375000 0.250000
vt 0.375000 0.250000
vt 0.000000 0.000000
vt 1.000000 0.000000
vt 1.000000 1.000000
vt 0.000000 1.000000
vt 0.000000 0.000000
vt 1.000000 0.000000
vt 1.000000 1.000000
vt 0.000000 1.000000
vt 0.000000 0.000000
vt 1.000000 0.000000
vt 1.000000 1.000000
vt 0.000000 1.000000
vt 0.000000 0.000000
vt 1.000000 0.000000
vt 1.000000 1.000000
vt 0.000000 1.000000
vt 0.000000 0.000000
vt 1.000000 0.000000
vt 1.000000 1.000000
vt 0.000000 1.000000
vt 0.000000 0.000000
vt 1.000000 0.000000
vt 1.000000 1.000000
vt 0.000000 1.000000
vt 0.000000 0.000000
vt 1.000000 0.000000
vt 1.000000 1.000000
vt 0.000000 1.000000
vt 0.000000 0.000000
vt 1.000000 0.000000
vt 1.000000 1.000000
vt 0.000000 1.000000
vt 0.000000 0.000000
vt 0.000000 0.000000
vt 0.000000 0.000000
vt 0.000000 0.000000
vt 0.000000 0.000000
vt 0.000000 0.000000
vt 0.000000 0.000000
vt 0.000000 0.000000
vt 0.000000 0.000000
vt 0.000000 0.000000
vt 0.000000 0.000000
vt 0.000000 0.000000
vn 0.000000 0.643537 0.765415
vn 0.000000 0.643537 0.765415
vn 0.000000 0.643537 0.765415
vn 0.000000 0.643537 0.765415
vn 0.000000 0.643538 0.765414
vn 0.000000 0.643538 0.765414
vn 0.000000 0.643538 0.765414
vn 0.000000 0.643538 0.765414
vn 0.000000 0.643537 0.765415
vn 0.000000 0.643537 0.765415
vn 0.000000 0.643537 0.765415
vn 0.000000 0.643537 0.765415
vn 0.000000 0.643538 0.765414
vn 0.000000 0.643538 0.765414
vn 0.000000 0.643538 0.765414
vn 0.000000 0.643538 0.765414
vn 0.000000 0.643538 0.765415
vn 0.000000 0.643538 0.765415
vn 0.000000 0.643538 0.765415
vn 0.000000 0.643538 0.765415
vn 0.000000 0.643537 0.765415
vn 0.000000 0.643537 0.765415
vn 0.000000 0.643537 0.765415
vn 0.000000 0.643537 0.765415
vn 0.000000 0.643537 0.765415
vn 0.000000 0.643537 0.765415
vn 0.000000 0.643537 0.765415
vn 0.000000 0.643537 0.765415
vn 0.000000 -0.765415 0.643537
vn 0.000000 -0.765415 0.643537
vn 0.000000 -0.765415 0.643537
vn 0.000000 -0.765415 0.643537
vn 1.000000 0.000001 0.000000
vn 1.000000 0.000001 0.000000
vn 1.000000 0.000001 0.000000
vn 1.000000 0.000001 0.000000
vn 0.000000 0.765415 -0.643537
vn 0.000000 0.765415 -0.643537
vn 0.000000 0.765415 -0.643537
vn 0.000000 0.765415 -0.643537
vn -1.000000 -0.000001 0.000000
vn -1.000000 -0.000001 0.000000
vn -1.000000 -0.000001 0.000000
vn -1.000000 -0.000001 0.000000
vn 0.000000 -0.765411 0.643541
vn 0.000000 -0.765411 0.643541
vn 0.000000 -0.765411 0.643541
vn 0.000000 -0.765411 0.643541
vn 1.000000 -0.000001 0.000000
vn 1.000000 -0.000001 0.000000
vn 1.000000 -0.000001 0.000000
vn 1.000000 -0.000001 0.000000
vn 0.000000 0.765412 -0.643540
vn 0.000000 0.765412 -0.643540
vn 0.000000 0.765412 -0.643540
vn 0.000000 0.765412 -0.643540
vn -1.000000 0.000001 0.000000
vn -1.000000 0.000001 0.000000
vn -1.000000 0.000001 0.000000
vn -1.000000 0.000001 0.000000
vn 0.000000 -0.765412 0.643540
vn 0.000000 -0.765412 0.643540
vn 0.000000 -0.765412 0.643540
vn 0.000000 -0.765412 0.643540
vn 1.000000 -0.000001 0.000000
vn 1.000000 -0.000001 0.000000
vn 1.000000 -0.000001 0.000000
vn 1.000000 -0.000001 0.000000
vn 0.000000 0.765412 -0.643540
vn 0.000000 0.765412 -0.643540
vn 0.000000 0.765412 -0.643540
vn 0.000000 0.765412 -0.643540
vn -1.000000 0.000001 0.000000
vn -1.000000 0.000001 0.000000
vn -1.000000 0.000001 0.000000
vn -1.000000 0.000001 0.000000
vn 0.000000 -0.765414 0.643539
vn 0.000000 -0.765414 0.643539
vn 0.000000 -0.765414 0.643539
vn 0.000000 -0.765414 0.643539
vn 1.000000 0.000001 0.000000
vn 1.000000 0.000001 0.000000
vn 1.000000 0.000001 0.000000
vn 1.000000 0.000001 0.000000
vn 0.000000 0.765416 -0.643536
vn 0.000000 0.765416 -0.643536
vn 0.000000 0.765416 -0.643536
vn 0.000000 0.765416 -0.643536
vn -1.000000 0.000001 0.000000
vn -1.000000 0.000001 0.000000
vn -1.000000 0.000001 0.000000
vn -1.000000 0.000001 0.000000
vn 0.000000 0.643538 0.765414
vn 0.000000 0.643538 0.765414
vn 0.000000 0.643538 0.765414
vn 0.000000 0.643538 0.765414
vn -0.000001 0.643537 0.765415
vn -0.000001 0.643537 0.765415
vn -0.000001 0.643537 0.765415
vn -0.000001 0.643537 0.765415
vn 0.000000 0.643535 0.765416
vn 0.000000 0.643535 0.765416
vn 0.000000 0.643535 0.765416
vn 0.000000 0.643535 0.765416
vn 0.000001 0.643537 0.765415
vn 0.000001 0.643537 0.765415
vn 0.000001 0.643537 0.765415
vn 0.000001 0.643537 0.765415
vn 0.000000 -0.765419 0.643533
vn 0.000000 -0.765419 0.643533
vn 0.000000 -0.765419 0.643533
vn 0.000000 -0.765419 0.643533
vn 0.000000 0.765416 -0.643536
vn 0.000000 0.765416 -0.643536
vn 0.000000 0.765416 -0.643536
vn 0.000000 0.765416 -0.643536
vn 1.000000 0.000000 0.000000
vn 1.000000 0.000000 0.000000
vn 1.000000 0.000000 0.000000
vn 1.000000 0.000000 0.000000
vn -1.000000 -0.000000 0.000000
vn -1.000000 -0.000000 0.000000
vn -1.000000 -0.000000 0.000000
vn -1.000000 -0.000000 0.000000
vn 0.000000 0.765414 -0.643538
vn 0.000000 0.765414 -0.643538
vn 0.000000 0.765414 -0.643538
vn 0.000000 0.765414 -0.643538
vn 0.000000 -0.765432 0.643517
vn 0.000000 -0.765432 0.643517
vn 0.000000 -0.765432 0.643517
vn 0.000000 -0.765432 0.643517
vn -1.000000 -0.000000 0.000000
vn -1.000000 -0.000000 0.000000
vn -1.000000 -0.000000 0.000000
vn -1.000000 -0.000000 0.000000
vn 1.000000 0.000000 0.000000
vn 1.000000 0.000000 0.000000
vn 1.000000 0.000000 0.000000
vn 1.000000 0.000000 0.000000
vn 0.000000 -0.643537 -0.765415
vn 0.000000 -0.643537 -0.765415
vn 0.000000 -0.643537 -0.765415
vn 0.000000 -0.643537 -0.765415
vn 0.000000 -0.643536 -0.765416
vn 0.000000 -0.643536 -0.765416
vn 0.000000 -0.643536 -0.765416
vn 0.000000 -0.643536 -0.765416
vn 0.000001 -0.643537 -0.765415
vn 0.000001 -0.643537 -0.765415
vn 0.000001 -0.643537 -0.765415
vn 0.000001 -0.643537 -0.765415
vn 0.000000 -0.643538 -0.765415
vn 0.000000 -0.643537 -0.765415
vn 0.000000 -0.643538 -0.765415
vn 0.000000 -0.643537 -0.765415
vn -0.000001 -0.643537 -0.765415
vn -0.000001 -0.643537 -0.765415
vn -0.000001 -0.643537 -0.765415
vn -0.000001 -0.643537 -0.765415
vn 0.000000 0.765416 -0.643536
vn 0.000000 0.765416 -0.643536
vn 0.000000 0.765416 -0.643536
vn 0.000000 0.765416 -0.643536
vn 1.000000 -0.000001 -0.000001
vn 1.000000 -0.000001 -0.000001
vn 1.000000 -0.000001 -0.000001
vn 1.000000 -0.000001 -0.000001
vn 0.000000 -0.765415 0.643536
vn 0.000000 -0.765415 0.643536
vn 0.000000 -0.765415 0.643536
vn 0.000000 -0.765415 0.643536
vn -1.000000 0.000001 0.000001
vn -1.000000 0.000001 0.000001
vn -1.000000 0.000001 0.000001
vn -1.000000 0.000001 0.000001
s off
g door group1
usemtl initialShadingGroup
f 5/9/1 6/7/2 8/8/3 7/10/4
f 9/4/5 10/11/6 12/12/7 11/1/8
f 13/5/9 14/15/10 16/16/11 15/6/12
f 18/17/13 17/18/14 19/19/15 20/20/16
f 22/21/17 21/22/18 23/23/19 24/24/20
f 26/25/21 25/26/22 27/27/23 28/28/24
f 29/29/25 30/30/26 31/31/27 32/32/28
f 9/4/29 11/1/30 17/18/31 18/17/32
f 11/1/33 3/3/34 19/19/35 17/18/36
f 3/3/37 4/2/38 20/20/39 19/19/40
f 4/2/41 9/4/42 18/17/43 20/20/44
f 13/5/45 15/6/46 21/22/47 22/21/48
f 15/6/49 8/8/50 23/23/51 21/22/52
f 8/8/53 6/7/54 24/24/55 23/23/56
f 6/7/57 13/5/58 22/21/59 24/24/60
f 5/9/61 7/10/62 25/26/63 26/25/64
f 7/10/65 12/12/66 27/27/67 25/26/68
f 12/12/69 10/11/70 28/28/71 27/27/72
f 10/11/73 5/9/74 26/25/75 28/28/76
f 1/13/77 2/14/78 30/30/79 29/29/80
f 2/14/81 16/16/82 31/31/83 30/30/84
f 16/16/85 14/15/86 32/32/87 31/31/88
f 14/15/89 1/13/90 29/29/91 32/32/92
f 33/33/93 34/34/94 35/35/95 36/36/96
f 34/34/97 37/37/98 38/38/99 35/35/100
f 37/37/101 39/39/102 40/40/103 38/38/104
f 39/39/105 33/33/106 36/36/107 40/40/108
f 34/41/109 33/42/110 41/43/111 42/44/112
f 36/45/113 35/46/114 44/47/115 43/48/116
f 37/49/117 34/50/118 42/51/119 45/52/120
f 35/53/121 38/54/122 46/55/123 44/56/124
f 39/57/125 37/58/126 45/59/127 47/60/128
f 38/61/129 40/62/130 48/63/131 46/64/132
f 33/65/133 39/66/134 47/67/135 41/68/136
f 40/69/137 36/70/138 43/71/139 48/72/140
f 53/73/141 54/74/142 55/75/143 56/76/144
f 47/77/145 45/78/146 50/79/147 49/80/148
f 45/78/149 42/81/150 51/82/151 50/79/152
f 42/81/153 41/83/154 52/84/155 51/82/156
f 41/83/157 47/77/158 49/80/159 52/84/160
f 49/80/161 50/79/162 54/74/163 53/73/164
f 50/79/165 51/82/166 55/75/167 54/74/168
f 51/82/169 52/84/170 56/76/171 55/75/172
f 52/84/173 49/80/174 53/73/175 56/76/176
