# This file uses centimeters as units for non-parametric coordinates.

mtllib bunker.mtl
g default
v -16.981180 34.210454 25.949561
v 16.981172 34.210454 25.949561
v 16.981172 0.308090 54.453630
v -16.981180 0.308090 54.453630
v -16.981182 -0.585529 -15.436335
v 16.981169 -0.585529 -15.436335
v 16.981169 -34.487900 13.067726
v -16.981182 -34.487900 13.067726
v -24.163543 41.380124 19.921523
v 24.163534 41.380124 19.921523
v 24.163534 -6.861579 60.481671
v -24.163543 -6.861579 60.481671
v -24.163543 41.380124 -40.296618
v 24.163534 41.380124 -40.296618
v 24.163534 -6.861579 -75.479154
v -24.163543 -6.861579 -75.479154
v -24.163543 -49.999999 60.481671
v 24.163534 -49.999999 60.481671
v -24.163543 -49.999999 -75.479154
v 24.163534 -49.999999 -75.479154
vt 0.000000 0.000000
vt 0.000000 0.000000
vt 0.000000 0.000000
vt 0.000000 0.000000
vt 0.000000 0.000000
vt 0.000000 0.000000
vt 0.000000 0.000000
vt 0.000000 0.000000
vt 0.000000 0.000000
vt 1.000000 0.000000
vt 1.000000 1.000000
vt 0.000000 1.000000
vt 0.000000 0.000000
vt 1.000000 0.000000
vt 1.000000 1.000000
vt 0.000000 1.000000
vt 0.000000 0.000000
vt 1.000000 0.000000
vt 1.000000 1.000000
vt 0.000000 1.000000
vt 0.000000 0.000000
vt 1.000000 0.000000
vt 1.000000 1.000000
vt 0.000000 1.000000
vt 0.000000 0.000000
vt 1.000000 0.000000
vt 0.500000 1.000000
vt 0.500000 1.000000
vt 0.000000 0.000000
vt 1.000000 0.000000
vt 0.500000 1.000000
vt 0.000000 0.000000
vt 1.000000 0.000000
vt 0.500000 1.000000
vt 0.000000 0.000000
vt 1.000000 0.000000
vt 0.000000 0.000000
vt 1.000000 0.000000
vt 0.500000 1.000000
vt 0.500000 1.000000
vn 0.000000 0.643537 0.765415
vn 0.000000 0.643537 0.765415
vn 0.000000 0.643537 0.765415
vn 0.000000 0.643537 0.765415
vn 0.000000 -0.765415 0.643537
vn 0.000000 -0.765415 0.643537
vn 0.000000 -0.765415 0.643537
vn 0.000000 -0.765415 0.643537
vn -1.000000 0.000000 0.000000
vn -1.000000 0.000000 0.000000
vn -1.000000 0.000000 0.000000
vn -1.000000 0.000000 0.000000
vn 0.000000 0.765415 -0.643537
vn 0.000000 0.765415 -0.643537
vn 0.000000 0.765415 -0.643537
vn 0.000000 0.765415 -0.643537
vn 1.000000 -0.000000 -0.000000
vn 1.000000 -0.000000 -0.000000
vn 1.000000 -0.000000 -0.000000
vn 1.000000 -0.000000 -0.000000
vn 0.000000 0.643537 0.765415
vn 0.000000 0.643537 0.765415
vn 0.000000 0.643537 0.765415
vn 0.000000 0.643537 0.765415
vn -0.000000 0.643537 0.765415
vn -0.000000 0.643537 0.765415
vn -0.000000 0.643537 0.765415
vn -0.000000 0.643537 0.765415
vn 0.000000 0.643537 0.765415
vn 0.000000 0.643537 0.765415
vn 0.000000 0.643537 0.765415
vn 0.000000 0.643537 0.765415
vn -0.000000 0.643537 0.765415
vn -0.000000 0.643537 0.765415
vn -0.000000 0.643537 0.765415
vn -0.000000 0.643537 0.765415
vn 0.000000 1.000000 0.000000
vn 0.000000 1.000000 0.000000
vn 0.000000 1.000000 0.000000
vn 0.000000 1.000000 0.000000
vn 1.000000 -0.000000 0.000000
vn 1.000000 -0.000000 0.000000
vn 1.000000 -0.000000 0.000000
vn 1.000000 -0.000000 0.000000
vn -1.000000 0.000000 0.000000
vn -1.000000 0.000000 0.000000
vn -1.000000 0.000000 0.000000
vn -1.000000 0.000000 0.000000
vn 0.000000 0.589241 -0.807957
vn 0.000000 0.589241 -0.807957
vn 0.000000 0.589241 -0.807957
vn 0.000000 0.589241 -0.807957
vn 0.000000 0.000000 1.000000
vn 0.000000 0.000000 1.000000
vn 0.000000 0.000000 1.000000
vn 0.000000 0.000000 1.000000
vn -1.000000 0.000000 0.000000
vn -1.000000 0.000000 0.000000
vn -1.000000 0.000000 0.000000
vn -1.000000 0.000000 0.000000
vn 0.000000 0.000000 -1.000000
vn 0.000000 0.000000 -1.000000
vn 0.000000 0.000000 -1.000000
vn 0.000000 0.000000 -1.000000
vn 1.000000 0.000000 0.000000
vn 1.000000 0.000000 0.000000
vn 1.000000 0.000000 0.000000
vn 1.000000 0.000000 0.000000
s off
g bunker group1
usemtl initialShadingGroup
f 5/1/1 8/4/2 7/3/3 6/2/4
f 1/6/5 5/1/6 6/2/7 2/5/8
f 2/5/9 6/2/10 7/3/11 3/7/12
f 3/7/13 7/3/14 8/4/15 4/8/16
f 4/8/17 8/4/18 5/1/19 1/6/20
f 1/9/21 2/10/22 10/11/23 9/12/24
f 2/13/25 3/14/26 11/15/27 10/16/28
f 3/17/29 4/18/30 12/19/31 11/20/32
f 4/21/33 1/22/34 9/23/35 12/24/36
f 9/25/37 10/26/38 14/27/39 13/28/40
f 10/29/41 11/30/42 15/31/43 14/27/44
f 12/35/45 9/36/46 13/28/47 16/34/48
f 13/28/49 14/27/50 15/31/51 16/34/52
f 11/32/53 12/33/54 17/38/55 18/37/56
f 12/33/57 16/34/58 19/39/59 17/38/60
f 16/34/61 15/31/62 20/40/63 19/39/64
f 15/31/65 11/32/66 18/37/67 20/40/68
