# This file uses centimeters as units for non-parametric coordinates.

mtllib crate.mtl
g default
v 36.803135 3.929868 48.725735
v 46.070133 13.196865 48.725735
v -46.070133 86.803131 48.725735
v -36.803135 96.070129 48.725735
v -49.578392 83.294884 44.476856
v -33.294876 99.578392 44.476856
v 33.294876 0.421610 44.476856
v 49.578392 16.705124 44.476856
v -50.000011 -0.000014 49.999992
v 50.000011 -0.000014 49.999992
v -50.000011 100.000015 49.999992
v 50.000011 100.000015 49.999992
v -50.000000 100.000000 -50.000008
v 50.000000 100.000000 -50.000008
v -50.000000 0.000000 -50.000008
v 50.000000 0.000000 -50.000008
v -40.000000 10.000000 50.000027
v 40.000000 10.000000 50.000027
v 40.000000 90.000000 50.000015
v -40.000000 90.000000 50.000015
v -50.000000 10.000000 -40.000008
v -50.000011 10.000000 39.999992
v -50.000011 90.000000 39.999992
v -50.000000 90.000000 -40.000008
v -40.000000 100.000015 39.999992
v 40.000000 100.000015 39.999992
v 40.000000 100.000000 -40.000008
v -40.000000 100.000000 -40.000008
v -40.000000 90.000000 -50.000023
v 40.000000 90.000000 -50.000023
v 40.000000 10.000000 -50.000008
v -40.000000 10.000000 -50.000008
v 50.000000 10.000000 -40.000008
v 50.000011 10.000000 39.999992
v 50.000000 90.000000 -40.000008
v 50.000011 90.000000 39.999992
v -40.000000 0.000000 -40.000008
v 40.000000 0.000000 -40.000008
v 40.000000 0.000000 39.999992
v -40.000000 0.000000 39.999992
v -37.921841 12.078156 47.402332
v 37.921841 12.078156 47.402332
v 37.921841 87.921844 47.402321
v -37.921841 87.921844 47.402321
v -37.921841 97.402328 37.921837
v 37.921841 97.402328 37.921837
v 37.921841 97.402313 -37.921848
v -37.921841 97.402313 -37.921848
v -37.921841 87.921844 -47.402328
v 37.921841 87.921844 -47.402328
v 37.921841 12.078156 -47.402313
v -37.921844 12.078156 -47.402313
v -37.921841 2.597694 -37.921848
v 37.921841 2.597694 -37.921848
v 37.921841 2.597694 37.921837
v -37.921841 2.597694 37.921837
v 47.402306 12.078156 -37.921848
v 47.402317 12.078156 37.921837
v 47.402306 87.921844 -37.921848
v 47.402317 87.921844 37.921837
v -47.402306 12.078156 -37.921848
v -47.402317 12.078156 37.921837
v -47.402317 87.921844 37.921837
v -47.402306 87.921844 -37.921848
v -48.725742 86.803131 46.070126
v -48.725742 96.070129 36.803127
v -48.725742 3.929868 -36.803143
v -48.725742 13.196865 -46.070141
v -44.476860 0.421610 -33.294884
v -44.476860 16.705124 -49.578396
v -44.476860 83.294884 49.578384
v -44.476860 99.578392 33.294868
v 36.803135 3.929868 48.725735
v 46.070133 13.196865 48.725735
v -46.070133 86.803131 48.725735
v -36.803135 96.070129 48.725735
v -49.578392 83.294884 44.476856
v -33.294876 99.578392 44.476856
v 33.294876 0.421610 44.476856
v 49.578392 16.705124 44.476856
v 48.725742 86.803131 -46.070141
v 48.725742 96.070129 -36.803123
v 48.725742 3.929869 36.803127
v 48.725742 13.196865 46.070126
v 44.476860 0.421612 33.294868
v 44.476860 16.705130 49.578384
v 44.476860 83.294884 -49.578377
v 44.476860 99.578392 -33.294884
v -36.803135 3.929868 -48.725750
v -46.070133 13.196865 -48.725750
v 46.070133 86.803131 -48.725750
v 36.803135 96.070129 -48.725750
v 49.578392 83.294884 -44.476868
v 33.294876 99.578392 -44.476868
v -33.294876 0.421610 -44.476868
v -49.578392 16.705124 -44.476868
v 46.070133 1.274258 36.803127
v 36.803135 1.274258 46.070126
v -36.803135 1.274258 -46.070141
v -46.070133 1.274258 -36.803143
v -33.294876 5.523139 -49.578396
v -49.578392 5.523139 -33.294884
v 49.578392 5.523139 33.294868
v 33.294876 5.523139 49.578384
v 46.070133 98.725739 -36.803143
v 36.803135 98.725739 -46.070141
v -36.803135 98.725739 46.070126
v -46.070133 98.725739 36.803127
v -33.294876 94.476852 49.578384
v -49.578392 94.476852 33.294868
v 49.578392 94.476852 -33.294884
v 33.294876 94.476852 -49.578396
vt 0.562458 0.022253
vt 0.640811 0.022257
vt 0.562419 0.722951
vt 0.640772 0.722956
vt 0.679864 0.022259
vt 0.679826 0.722958
vt 0.523404 0.022251
vt 0.523366 0.722949
vt 0.019458 0.019455
vt 0.813489 0.450349
vt 0.919413 0.728304
vt 0.953337 0.821151
vt 0.024199 0.524314
vt 0.820133 0.099834
vt 0.823610 0.579441
vt 0.924566 0.657366
vt 0.024630 0.024631
vt 0.692752 0.573701
vt 0.694019 0.577292
vt 0.693578 0.576275
vt 0.021196 0.521314
vt 0.684330 0.778198
vt 0.844244 0.898472
vt 0.987373 0.648730
vt 0.019458 0.019455
vt 0.532376 0.117597
vt 0.979867 0.554376
vt 0.973223 0.904890
vt 0.022413 0.522399
vt 0.793603 0.366609
vt 0.764831 0.202824
vt 0.531550 0.115022
vt 0.905950 0.722551
vt 0.764368 0.970849
vt 0.833426 0.437894
vt 0.704498 0.431461
vt 0.893355 0.977276
vt 0.899474 0.740756
vt 0.839605 0.201368
vt 0.933400 0.833605
vt 0.612506 0.040206
vt 0.813540 0.354154
vt 0.844744 0.172593
vt 0.784768 0.190370
vt 0.743802 0.052505
vt 0.551782 0.102387
vt 0.840070 0.087380
vt 0.779667 0.261293
vt 0.899998 0.626761
vt 0.803671 0.591893
vt 0.904628 0.669820
vt 0.672747 0.586202
vt 0.683864 0.112430
vt 0.604263 0.850763
vt 0.673699 0.589991
vt 0.673346 0.588911
vt 0.552381 0.105095
vt 0.544186 0.310045
vt 0.959930 0.566831
vt 0.953286 0.917345
vt 0.664343 0.790684
vt 0.551430 0.101306
vt 0.824306 0.910925
vt 0.967047 0.661432
vt 0.678955 0.040819
vt 0.757309 0.040823
vt 0.757270 0.741522
vt 0.678917 0.741518
vt 0.796362 0.040826
vt 0.796323 0.741524
vt 0.639902 0.040817
vt 0.639864 0.741516
vt 0.560878 0.249645
vt 0.639230 0.249657
vt 0.639123 0.950356
vt 0.560769 0.950344
vt 0.678284 0.249663
vt 0.678176 0.950361
vt 0.521824 0.249639
vt 0.521716 0.950337
vt 0.635536 0.148265
vt 0.713889 0.148270
vt 0.713851 0.848968
vt 0.635498 0.848964
vt 0.752942 0.148272
vt 0.752904 0.848971
vt 0.596483 0.148263
vt 0.596445 0.848962
vt 0.659581 0.026037
vt 0.737934 0.026041
vt 0.737896 0.726740
vt 0.659543 0.726735
vt 0.776988 0.026043
vt 0.776949 0.726742
vt 0.620528 0.026035
vt 0.620490 0.726733
vt 0.764273 0.042434
vt 0.842626 0.042438
vt 0.842588 0.743137
vt 0.764235 0.743133
vt 0.881679 0.042441
vt 0.881641 0.743139
vt 0.725220 0.042432
vt 0.725182 0.743131
vt 0.660843 0.149649
vt 0.739196 0.149653
vt 0.739157 0.850351
vt 0.660805 0.850347
vt 0.778249 0.149655
vt 0.778211 0.850354
vt 0.621789 0.149647
vt 0.621751 0.850345
vt 0.022399 0.977588
vt 0.824418 0.185295
vt 0.477587 0.977601
vt 0.477601 0.522413
vt 0.524200 0.322530
vt 0.480542 0.480545
vt 0.480544 0.019458
vt 0.531110 0.114005
vt 0.021196 0.978921
vt 0.478804 0.978921
vt 0.478804 0.521314
vt 0.663925 0.124882
vt 0.024630 0.475369
vt 0.475369 0.475369
vt 0.475369 0.024631
vt 0.784766 0.669819
vt 0.764829 0.657365
vt 0.813537 0.833604
vt 0.793600 0.821150
vt 0.844832 0.661454
vt 0.824501 0.648759
vt 0.551719 0.588895
vt 0.531490 0.576254
vt 0.959933 0.087380
vt 0.979870 0.099835
vt 0.552465 0.586224
vt 0.532456 0.573729
vt 0.953289 0.437895
vt 0.544183 0.790683
vt 0.524197 0.778197
vt 0.824361 0.431475
vt 0.844296 0.443932
vt 0.664346 0.310045
vt 0.684333 0.322531
vt 0.551522 0.590014
vt 0.531197 0.577323
vt 0.966960 0.172571
vt 0.987291 0.185266
vt 0.673607 0.101283
vt 0.693931 0.113974
vt 0.672663 0.105074
vt 0.692672 0.117569
vt 0.683808 0.591880
vt 0.663873 0.579423
vt 0.673409 0.102403
vt 0.693638 0.115043
vt 0.803726 0.112443
vt 0.840068 0.566830
vt 0.779612 0.740742
vt 0.904631 0.190370
vt 0.899529 0.261306
vt 0.833424 0.917344
vt 0.704443 0.910911
vt 0.933403 0.354155
vt 0.873472 0.294223
vt 0.764436 0.371537
vt 0.893358 0.377963
vt 0.604267 0.249965
vt 0.612511 0.044943
vt 0.612622 0.651091
vt 0.612525 0.649716
vt 0.905841 0.111474
vt 0.839536 0.800681
vt 0.900002 0.027449
vt 0.743733 0.651817
vt 0.612617 0.646354
vt 0.844697 0.729751
vt 0.612603 0.041581
vt 0.873468 0.893536
vt 0.844700 0.130439
vt 0.684560 0.443913
vt 0.953340 0.366610
vt 0.919465 0.273763
vt 0.019455 0.480542
vt 0.813486 0.904889
vt 0.480542 0.480545
vt 0.684507 0.898454
vt 0.480545 0.019458
vt 0.973226 0.450350
vt 0.019456 0.480542
vt 0.759728 0.273745
vt 0.924568 0.202825
vt 0.823662 0.124900
vt 0.759676 0.728286
vt 0.475803 0.524317
vt 0.820130 0.554375
vt 0.024197 0.975919
vt 0.475801 0.975921
vn 0.000000 0.000000 1.000000
vn 0.000000 0.000000 1.000000
vn 0.000000 0.000000 1.000000
vn 0.000000 0.000000 1.000000
vn 0.459943 0.459944 0.759542
vn 0.459943 0.459944 0.759542
vn 0.459943 0.459944 0.759542
vn 0.459943 0.459944 0.759542
vn -0.459943 -0.459944 0.759542
vn -0.459943 -0.459944 0.759542
vn -0.459943 -0.459944 0.759542
vn -0.459943 -0.459944 0.759542
vn 0.000000 0.000000 1.000000
vn 0.000000 0.000000 1.000000
vn 0.000000 0.000000 1.000000
vn 0.000000 0.000000 1.000000
vn 0.000000 1.000000 -0.000000
vn 0.000000 1.000000 -0.000000
vn 0.000000 1.000000 -0.000000
vn 0.000000 1.000000 -0.000000
vn 0.000000 -0.000000 -1.000000
vn 0.000000 -0.000000 -1.000000
vn 0.000000 -0.000000 -1.000000
vn 0.000000 -0.000000 -1.000000
vn 0.000000 -1.000000 0.000000
vn 0.000000 -1.000000 0.000000
vn 0.000000 -1.000000 0.000000
vn 0.000000 -1.000000 0.000000
vn 1.000000 0.000000 -0.000000
vn 1.000000 0.000000 -0.000000
vn 1.000000 0.000000 -0.000000
vn 1.000000 0.000000 -0.000000
vn -1.000000 0.000000 -0.000000
vn -1.000000 0.000000 -0.000000
vn -1.000000 0.000000 -0.000000
vn -1.000000 0.000000 -0.000000
vn 0.000000 -0.000003 1.000000
vn 0.000000 -0.000003 1.000000
vn 0.000000 -0.000003 1.000000
vn 0.000000 -0.000003 1.000000
vn 0.000003 0.000000 1.000000
vn 0.000003 0.000000 1.000000
vn 0.000003 0.000000 1.000000
vn 0.000003 0.000000 1.000000
vn 0.000000 0.000002 1.000000
vn 0.000000 0.000002 1.000000
vn 0.000000 0.000002 1.000000
vn 0.000000 0.000002 1.000000
vn -0.000003 0.000000 1.000000
vn -0.000003 0.000000 1.000000
vn -0.000003 0.000000 1.000000
vn -0.000003 0.000000 1.000000
vn -1.000000 0.000001 -0.000000
vn -1.000000 0.000001 -0.000000
vn -1.000000 0.000001 -0.000000
vn -1.000000 0.000001 -0.000000
vn -1.000000 0.000000 0.000000
vn -1.000000 0.000000 0.000000
vn -1.000000 0.000000 0.000000
vn -1.000000 0.000000 0.000000
vn -1.000000 -0.000000 -0.000000
vn -1.000000 -0.000000 -0.000000
vn -1.000000 -0.000000 -0.000000
vn -1.000000 -0.000000 -0.000000
vn -1.000000 0.000000 0.000000
vn -1.000000 0.000000 0.000000
vn -1.000000 0.000000 0.000000
vn -1.000000 0.000000 0.000000
vn 0.000000 1.000000 -0.000001
vn 0.000000 1.000000 -0.000001
vn 0.000000 1.000000 -0.000001
vn 0.000000 1.000000 -0.000001
vn 0.000000 1.000000 -0.000000
vn 0.000000 1.000000 -0.000000
vn 0.000000 1.000000 -0.000000
vn 0.000000 1.000000 -0.000000
vn 0.000000 1.000000 0.000000
vn 0.000000 1.000000 0.000000
vn 0.000000 1.000000 0.000000
vn 0.000000 1.000000 0.000000
vn 0.000000 1.000000 -0.000000
vn 0.000000 1.000000 -0.000000
vn 0.000000 1.000000 -0.000000
vn 0.000000 1.000000 -0.000000
vn 0.000000 0.000002 -1.000000
vn 0.000000 0.000002 -1.000000
vn 0.000000 0.000002 -1.000000
vn 0.000000 0.000002 -1.000000
vn 0.000000 -0.000000 -1.000000
vn 0.000000 -0.000000 -1.000000
vn 0.000000 -0.000000 -1.000000
vn 0.000000 -0.000000 -1.000000
vn 0.000000 0.000000 -1.000000
vn 0.000000 0.000000 -1.000000
vn 0.000000 0.000000 -1.000000
vn 0.000000 0.000000 -1.000000
vn -0.000000 -0.000000 -1.000000
vn -0.000000 -0.000000 -1.000000
vn -0.000000 -0.000000 -1.000000
vn -0.000000 -0.000000 -1.000000
vn 1.000000 0.000000 -0.000000
vn 1.000000 0.000000 -0.000000
vn 1.000000 0.000000 -0.000000
vn 1.000000 0.000000 -0.000000
vn 1.000000 0.000000 0.000000
vn 1.000000 0.000000 0.000000
vn 1.000000 0.000000 0.000000
vn 1.000000 0.000000 0.000000
vn 1.000000 -0.000001 -0.000000
vn 1.000000 -0.000001 -0.000000
vn 1.000000 -0.000001 -0.000000
vn 1.000000 -0.000001 -0.000000
vn 1.000000 0.000000 0.000000
vn 1.000000 0.000000 0.000000
vn 1.000000 0.000000 0.000000
vn 1.000000 0.000000 0.000000
vn 0.000000 -1.000000 0.000000
vn 0.000000 -1.000000 0.000000
vn 0.000000 -1.000000 0.000000
vn 0.000000 -1.000000 0.000000
vn -0.000001 -1.000000 -0.000000
vn -0.000001 -1.000000 -0.000000
vn -0.000001 -1.000000 -0.000000
vn -0.000001 -1.000000 -0.000000
vn 0.000000 -1.000000 -0.000001
vn 0.000000 -1.000000 -0.000001
vn 0.000000 -1.000000 -0.000001
vn 0.000000 -1.000000 -0.000001
vn 0.000001 -1.000000 -0.000000
vn 0.000001 -1.000000 -0.000000
vn 0.000001 -1.000000 -0.000000
vn 0.000001 -1.000000 -0.000000
vn 0.000000 0.780869 0.624695
vn 0.000000 0.780869 0.624695
vn 0.000000 0.780869 0.624695
vn 0.000000 0.780869 0.624695
vn -0.780869 0.000000 0.624695
vn -0.780869 0.000000 0.624695
vn -0.780869 0.000000 0.624695
vn -0.780869 0.000000 0.624695
vn 0.000000 -0.780869 0.624695
vn 0.000000 -0.780869 0.624695
vn 0.000000 -0.780869 0.624695
vn 0.000000 -0.780869 0.624695
vn 0.780868 0.000000 0.624696
vn 0.780868 0.000000 0.624696
vn 0.780868 0.000000 0.624696
vn 0.780868 0.000000 0.624696
vn 0.000000 0.624696 -0.780868
vn 0.000000 0.624696 -0.780868
vn 0.000000 0.624696 -0.780868
vn 0.000000 0.624696 -0.780868
vn -0.780868 0.624696 -0.000000
vn -0.780868 0.624696 -0.000000
vn -0.780868 0.624696 -0.000000
vn -0.780868 0.624696 -0.000000
vn 0.000000 0.624697 0.780867
vn 0.000000 0.624697 0.780867
vn 0.000000 0.624697 0.780867
vn 0.000000 0.624697 0.780867
vn 0.780868 0.624697 -0.000000
vn 0.780868 0.624696 -0.000000
vn 0.780868 0.624697 -0.000000
vn 0.780868 0.624697 -0.000000
vn 0.000000 -0.780869 -0.624695
vn 0.000000 -0.780869 -0.624695
vn 0.000000 -0.780869 -0.624695
vn 0.000000 -0.780869 -0.624695
vn -0.780868 -0.000000 -0.624696
vn -0.780868 -0.000000 -0.624696
vn -0.780868 -0.000000 -0.624696
vn -0.780868 -0.000000 -0.624696
vn 0.000000 0.780869 -0.624695
vn 0.000000 0.780869 -0.624695
vn 0.000000 0.780869 -0.624695
vn 0.000000 0.780869 -0.624695
vn 0.780868 -0.000000 -0.624696
vn 0.780868 -0.000000 -0.624696
vn 0.780868 -0.000000 -0.624696
vn 0.780868 -0.000000 -0.624696
vn 0.000000 -0.624696 0.780868
vn 0.000000 -0.624696 0.780868
vn 0.000000 -0.624696 0.780868
vn 0.000000 -0.624696 0.780868
vn -0.780869 -0.624695 0.000000
vn -0.780869 -0.624695 0.000000
vn -0.780869 -0.624695 0.000000
vn -0.780869 -0.624695 0.000000
vn 0.000000 -0.624695 -0.780869
vn 0.000000 -0.624695 -0.780869
vn 0.000000 -0.624695 -0.780869
vn 0.000000 -0.624695 -0.780869
vn 0.780869 -0.624695 0.000000
vn 0.780869 -0.624695 0.000000
vn 0.780869 -0.624695 0.000000
vn 0.780869 -0.624695 0.000000
vn 0.624695 0.780869 -0.000000
vn 0.624695 0.780868 -0.000000
vn 0.624695 0.780869 -0.000000
vn 0.624695 0.780868 -0.000000
vn 0.624696 0.000000 0.780868
vn 0.624696 0.000000 0.780868
vn 0.624696 0.000000 0.780868
vn 0.624696 0.000000 0.780868
vn 0.624695 -0.780869 -0.000000
vn 0.624695 -0.780869 -0.000000
vn 0.624695 -0.780869 -0.000000
vn 0.624695 -0.780869 -0.000000
vn 0.624695 0.000000 -0.780869
vn 0.624695 0.000000 -0.780869
vn 0.624695 0.000000 -0.780869
vn 0.624695 0.000000 -0.780869
vn -0.624695 0.780869 -0.000000
vn -0.624695 0.780869 -0.000000
vn -0.624695 0.780869 -0.000000
vn -0.624695 0.780869 -0.000000
vn -0.624695 0.000000 -0.780869
vn -0.624695 0.000000 -0.780869
vn -0.624695 0.000000 -0.780869
vn -0.624695 0.000000 -0.780869
vn -0.624695 -0.780869 -0.000000
vn -0.624695 -0.780868 -0.000000
vn -0.624695 -0.780869 -0.000000
vn -0.624695 -0.780868 -0.000000
vn -0.624696 0.000000 0.780868
vn -0.624696 0.000000 0.780868
vn -0.624696 0.000000 0.780868
vn -0.624696 0.000000 0.780868
vn -1.000000 0.000000 0.000000
vn -1.000000 0.000000 0.000000
vn -1.000000 0.000000 0.000000
vn -1.000000 0.000000 0.000000
vn -0.759542 0.459944 -0.459944
vn -0.759542 0.459944 -0.459944
vn -0.759542 0.459944 -0.459944
vn -0.759542 0.459944 -0.459944
vn -0.759541 -0.459944 0.459944
vn -0.759541 -0.459944 0.459944
vn -0.759542 -0.459944 0.459944
vn -0.759542 -0.459944 0.459944
vn 0.000000 0.000000 1.000000
vn 0.000000 0.000000 1.000000
vn 0.000000 0.000000 1.000000
vn 0.000000 0.000000 1.000000
vn 0.459943 0.459944 0.759542
vn 0.459943 0.459944 0.759542
vn 0.459943 0.459944 0.759542
vn 0.459943 0.459944 0.759542
vn -0.459943 -0.459944 0.759542
vn -0.459943 -0.459944 0.759542
vn -0.459943 -0.459944 0.759542
vn -0.459943 -0.459944 0.759542
vn 1.000000 0.000000 0.000000
vn 1.000000 0.000000 0.000000
vn 1.000000 0.000000 0.000000
vn 1.000000 0.000000 0.000000
vn 0.759542 0.459944 0.459944
vn 0.759542 0.459944 0.459944
vn 0.759542 0.459944 0.459944
vn 0.759542 0.459944 0.459944
vn 0.759541 -0.459944 -0.459944
vn 0.759541 -0.459944 -0.459944
vn 0.759541 -0.459944 -0.459945
vn 0.759541 -0.459944 -0.459944
vn -0.000000 0.000000 -1.000000
vn -0.000000 0.000000 -1.000000
vn -0.000000 0.000000 -1.000000
vn -0.000000 0.000000 -1.000000
vn -0.459944 0.459944 -0.759542
vn -0.459944 0.459944 -0.759542
vn -0.459944 0.459944 -0.759542
vn -0.459944 0.459944 -0.759542
vn 0.459944 -0.459944 -0.759542
vn 0.459944 -0.459944 -0.759542
vn 0.459944 -0.459944 -0.759542
vn 0.459944 -0.459944 -0.759542
vn 0.000000 -1.000000 0.000000
vn 0.000000 -1.000000 0.000000
vn 0.000000 -1.000000 0.000000
vn 0.000000 -1.000000 0.000000
vn -0.459944 -0.759542 0.459944
vn -0.459944 -0.759542 0.459944
vn -0.459944 -0.759542 0.459944
vn -0.459944 -0.759542 0.459944
vn 0.459944 -0.759542 -0.459944
vn 0.459944 -0.759542 -0.459944
vn 0.459944 -0.759542 -0.459944
vn 0.459944 -0.759542 -0.459944
vn 0.000000 1.000000 0.000000
vn 0.000000 1.000000 0.000000
vn 0.000000 1.000000 0.000000
vn 0.000000 1.000000 0.000000
vn -0.459944 0.759541 -0.459944
vn -0.459944 0.759541 -0.459944
vn -0.459944 0.759541 -0.459944
vn -0.459944 0.759541 -0.459944
vn 0.459944 0.759541 0.459944
vn 0.459944 0.759541 0.459944
vn 0.459944 0.759541 0.459944
vn 0.459944 0.759541 0.459944
s off
g crate
usemtl initialShadingGroup
f 1/1/1 2/2/2 4/4/3 3/3/4
f 2/2/5 8/5/6 6/6/7 4/4/8
f 7/7/9 1/1/10 3/3/11 5/8/12
f 41/9/13 42/190/14 43/188/15 44/186/16
f 45/13/17 46/197/18 47/200/19 48/199/20
f 49/17/21 50/127/22 51/126/23 52/125/24
f 53/21/25 54/123/26 55/122/27 56/121/28
f 58/25/29 57/119/30 59/118/31 60/192/32
f 61/29/33 62/116/34 63/115/35 64/113/36
f 9/168/37 10/34/38 18/165/39 17/36/40
f 10/169/41 12/37/42 19/164/43 18/35/44
f 12/175/45 11/39/46 20/163/47 19/38/48
f 11/181/49 9/167/50 17/166/51 20/40/52
f 15/174/53 9/33/54 22/132/55 21/43/56
f 9/167/57 11/181/58 23/130/59 22/42/60
f 11/182/61 13/179/62 24/128/63 23/44/64
f 13/180/65 15/173/66 21/134/67 24/46/68
f 11/39/69 12/175/70 26/161/71 25/48/72
f 12/176/73 14/49/74 27/160/75 26/47/76
f 14/177/77 13/45/78 28/159/79 27/50/80
f 13/179/81 11/182/82 25/162/83 28/51/84
f 13/45/85 14/177/86 30/155/87 29/53/88
f 14/178/89 16/171/90 31/153/91 30/52/92
f 16/172/93 15/41/94 32/151/95 31/55/96
f 15/173/97 13/180/98 29/157/99 32/56/100
f 10/170/101 16/54/102 33/141/103 34/58/104
f 16/171/105 14/178/106 35/138/107 33/57/108
f 14/49/109 12/176/110 36/136/111 35/59/112
f 12/37/113 10/169/114 34/140/115 36/60/116
f 15/41/117 16/172/118 38/147/119 37/62/120
f 16/54/121 10/170/122 39/145/123 38/61/124
f 10/34/125 9/168/126 40/143/127 39/63/128
f 9/33/129 15/174/130 37/149/131 40/64/132
f 17/36/133 18/165/134 42/189/135 41/183/136
f 18/35/137 19/164/138 43/187/139 42/10/140
f 19/38/141 20/163/142 44/185/143 43/11/144
f 20/40/145 17/166/146 41/184/147 44/12/148
f 25/48/149 26/161/150 46/196/151 45/193/152
f 26/47/153 27/160/154 47/198/155 46/14/156
f 27/50/157 28/159/158 48/195/159 47/15/160
f 28/51/161 25/162/162 45/194/163 48/16/164
f 29/53/165 30/155/166 50/156/167 49/124/168
f 30/52/169 31/153/170 51/154/171 50/18/172
f 31/55/173 32/151/174 52/152/175 51/19/176
f 32/56/177 29/157/178 49/158/179 52/20/180
f 37/62/181 38/147/182 54/148/183 53/120/184
f 38/61/185 39/145/186 55/146/187 54/22/188
f 39/63/189 40/143/190 56/144/191 55/23/192
f 40/64/193 37/149/194 53/150/195 56/24/196
f 34/58/197 33/141/198 57/142/199 58/117/200
f 33/57/201 35/138/202 59/139/203 57/26/204
f 35/59/205 36/136/206 60/137/207 59/27/208
f 36/60/209 34/140/210 58/191/211 60/28/212
f 21/43/213 22/132/214 62/133/215 61/114/216
f 22/42/217 23/130/218 63/131/219 62/30/220
f 23/44/221 24/128/222 64/129/223 63/31/224
f 24/46/225 21/134/226 61/135/227 64/32/228
f 65/65/229 66/66/230 68/67/231 67/68/232
f 66/66/233 72/69/234 70/70/235 68/67/236
f 71/71/237 65/65/238 67/68/239 69/72/240
f 73/73/241 74/74/242 76/75/243 75/76/244
f 74/74/245 80/77/246 78/78/247 76/75/248
f 79/79/249 73/73/250 75/76/251 77/80/252
f 81/81/253 82/82/254 84/83/255 83/84/256
f 82/82/257 88/85/258 86/86/259 84/83/260
f 87/87/261 81/81/262 83/84/263 85/88/264
f 89/89/265 90/90/266 92/91/267 91/92/268
f 90/90/269 96/93/270 94/94/271 92/91/272
f 95/95/273 89/89/274 91/92/275 93/96/276
f 97/97/277 98/98/278 100/99/279 99/100/280
f 98/98/281 104/101/282 102/102/283 100/99/284
f 103/103/285 97/97/286 99/100/287 101/104/288
f 105/105/289 106/106/290 108/107/291 107/108/292
f 106/106/293 112/109/294 110/110/295 108/107/296
f 111/111/297 105/105/298 107/108/299 109/112/300
