# This file uses centimeters as units for non-parametric coordinates.

mtllib militaryFence.mtl
g default
v 8.479401 -0.268503 4.597919
v 8.420822 -0.268503 4.456497
v 8.479401 -0.268503 4.315076
v 8.620822 -0.268503 4.256497
v 8.762243 -0.268503 4.315076
v 8.820822 -0.268503 4.456497
v 8.762243 -0.268503 4.597919
v 8.620822 -0.268503 4.656497
v 8.479401 10.289808 4.597919
v 8.420822 10.289808 4.456497
v 8.479401 10.289808 4.315076
v 8.620822 10.289808 4.256497
v 8.762243 10.289808 4.315076
v 8.820822 10.289808 4.456497
v 8.762243 10.289808 4.597919
v 8.620822 10.289808 4.656497
v 8.620822 10.289808 4.456497
v 8.774015 8.357080 4.462124
v 19.680536 8.357080 4.462124
v 8.774015 0.000000 4.462124
v 19.680536 0.000000 4.462124
v 8.774015 8.357080 4.581240
v 8.774015 10.000000 4.581240
v 19.680538 10.000000 4.581240
v 19.680538 8.357080 4.581240
v 8.774017 10.000000 4.292971
v 19.680534 10.000000 4.292971
v 8.774017 0.000000 4.292971
v 19.680534 0.000000 4.292971
vt 0.675965 0.031025
vt 0.676025 0.281344
vt 0.672396 0.281344
vt 0.672336 0.031026
vt 0.668767 0.281345
vt 0.668707 0.031027
vt 0.665138 0.281346
vt 0.665078 0.031027
vt 0.661509 0.281347
vt 0.661449 0.031028
vt 0.657880 0.281348
vt 0.657820 0.031029
vt 0.654251 0.281349
vt 0.654191 0.031030
vt 0.650621 0.281350
vt 0.650562 0.031031
vt 0.646992 0.281350
vt 0.646932 0.031032
vt 0.648808 0.285731
vt 0.646994 0.290112
vt 0.644428 0.287546
vt 0.644427 0.283917
vt 0.653189 0.287544
vt 0.650623 0.290111
vt 0.653188 0.283915
vt 0.991618 0.028085
vt 0.995370 0.296745
vt 0.744669 0.296727
vt 0.744656 0.483046
vt 0.991605 0.217060
vt 0.998029 0.260116
vt 0.748444 0.253672
vt 0.748446 0.217043
vt 0.991602 0.260116
vt 0.748443 0.260099
vt 0.991586 0.483064
vt 0.748460 0.024297
vt 0.748460 0.028068
vt 0.748428 0.483047
vt 0.995357 0.483064
vt 0.991618 0.024314
vt 0.998026 0.296745
vt 0.991605 0.214405
vt 0.742014 0.296727
vt 0.748446 0.214388
vt 0.991602 0.253689
vt 0.742016 0.260098
vn -0.707107 0.000000 0.707107
vn -0.707107 0.000000 0.707107
vn -1.000000 0.000000 0.000000
vn -1.000000 0.000000 0.000000
vn -0.707107 0.000000 -0.707107
vn -0.707107 0.000000 -0.707107
vn 0.000000 0.000000 -1.000000
vn 0.000000 0.000000 -1.000000
vn 0.707107 0.000000 -0.707107
vn 0.707107 0.000000 -0.707107
vn 1.000000 0.000000 0.000000
vn 1.000000 0.000000 0.000000
vn 0.707107 0.000000 0.707107
vn 0.707107 0.000000 0.707107
vn 0.000000 0.000000 1.000000
vn 0.000000 0.000000 1.000000
vn 0.000000 1.000000 0.000000
vn 0.000000 1.000000 0.000000
vn 0.000000 1.000000 0.000000
vn 0.000000 1.000000 0.000000
vn 0.000000 1.000000 0.000000
vn 0.000000 1.000000 0.000000
vn 0.000000 1.000000 0.000000
vn 0.000000 1.000000 0.000000
vn 0.000000 1.000000 0.000000
vn 0.000000 0.000000 1.000000
vn 0.000000 0.000000 1.000000
vn 0.000000 0.000000 1.000000
vn 0.000000 0.000000 1.000000
vn 0.000000 0.000000 1.000000
vn 0.000000 0.000000 1.000000
vn 0.000000 0.000000 1.000000
vn 0.000000 0.000000 1.000000
vn 0.000000 -1.000000 -0.000001
vn 0.000000 -1.000000 -0.000001
vn 0.000000 -1.000000 -0.000001
vn 0.000000 -1.000000 -0.000001
vn 0.000000 1.000000 -0.000001
vn 0.000000 1.000000 -0.000001
vn 0.000000 1.000000 -0.000001
vn 0.000000 1.000000 -0.000001
vn 0.000000 0.000000 -1.000000
vn 0.000000 0.000000 -1.000000
vn 0.000000 0.000000 -1.000000
vn 0.000000 0.000000 -1.000000
vn 1.000000 0.000000 -0.000011
vn 1.000000 0.000000 -0.000011
vn 1.000000 0.000000 -0.000011
vn 1.000000 0.000000 -0.000011
vn 1.000000 0.000000 -0.000014
vn 1.000000 0.000000 -0.000014
vn 1.000000 0.000000 -0.000014
vn 1.000000 0.000000 -0.000014
vn -1.000000 0.000000 -0.000011
vn -1.000000 0.000000 -0.000011
vn -1.000000 0.000000 -0.000011
vn -1.000000 0.000000 -0.000011
vn -1.000000 0.000000 -0.000005
vn -1.000000 0.000000 -0.000005
vn -1.000000 0.000000 -0.000005
vn -1.000000 0.000000 -0.000005
vn 0.000000 -1.000000 0.000000
vn 0.000000 -1.000000 0.000000
vn 0.000000 -1.000000 0.000000
vn 0.000000 -1.000000 0.000000
s 1
g militaryFence
usemtl initialShadingGroup
f 1/1/1 9/2/2 10/3/3 2/4/4
f 2/4/4 10/3/3 11/5/5 3/6/6
f 3/6/6 11/5/5 12/7/7 4/8/8
f 4/8/8 12/7/7 13/9/9 5/10/10
f 5/10/10 13/9/9 14/11/11 6/12/12
f 6/12/12 14/11/11 15/13/13 7/14/14
f 7/14/14 15/13/13 16/15/15 8/16/16
f 8/16/16 16/15/15 9/17/2 1/18/1
s 2
f 17/19/17 12/20/18 11/21/19 10/22/20
f 17/19/17 14/23/21 13/24/22 12/20/18
f 17/19/17 16/15/23 15/25/24 14/23/21
f 17/19/17 10/22/20 9/17/25 16/15/23
s off
f 21/26/26 19/43/27 18/45/28 20/38/29
f 25/30/30 24/46/31 23/32/32 22/33/33
f 25/30/34 22/33/35 18/45/36 19/43/37
f 23/32/38 24/46/39 27/34/40 26/35/41
f 26/35/42 27/34/43 29/36/44 28/39/45
f 19/27/46 21/40/47 29/36/48 27/34/49
f 25/42/50 19/27/51 27/34/52 24/31/53
f 20/29/54 18/28/55 26/35/56 28/39/57
f 18/28/58 22/44/59 23/47/60 26/35/61
f 21/26/62 20/38/63 28/37/64 29/41/65
