# This file uses centimeters as units for non-parametric coordinates.

mtllib fence03.mtl
g default
v 525.919128 145.864777 -12.797108
v 539.466797 -7.000000 -10.694469
v 547.106873 147.839294 -15.024277
v 557.523743 -7.000000 -12.661298
v 545.430786 144.781097 -31.399643
v 559.862305 -7.000000 -32.417191
v 525.919128 150.361664 -31.334452
v 539.466797 -7.000000 -30.874344
v 531.167297 75.536995 -13.089871
v 529.380737 74.908699 -28.478941
v 554.487000 76.218735 -28.768686
v 554.487000 76.218735 -12.800125
v 272.558289 155.262695 -12.411806
v 268.291962 -7.000000 -10.694469
v 293.123352 160.658691 -15.024277
v 286.339172 -7.000000 -12.661297
v 290.411865 163.300568 -27.202309
v 288.676483 -7.000000 -32.417191
v 272.558289 155.262695 -23.025217
v 268.291962 -7.000000 -30.874344
v 269.589508 75.913239 -13.839561
v 267.982239 75.300018 -28.478941
v 290.314545 75.954391 -28.768686
v 290.314545 75.954391 -12.800125
v 260.257843 110.670456 -4.660493
v 567.700623 100.343857 -4.859851
v 259.153595 139.472107 -2.038601
v 575.149231 127.489677 -5.116834
v 252.686157 136.159851 -11.944633
v 575.818726 125.731972 -13.434672
v 256.428162 108.923393 -12.443368
v 568.655518 99.098221 -11.452689
v 424.776978 110.121048 -6.158305
v 425.807709 108.478622 -10.915520
v 418.548950 137.229080 -10.256621
v 424.873810 134.089737 -5.562302
v 256.728333 43.818714 -4.095019
v 568.768433 45.261192 -4.288739
v 260.972412 70.291504 -6.111721
v 569.736816 70.336037 -5.116834
v 252.572250 68.575348 -11.239047
v 569.725708 72.674606 -12.919264
v 256.728333 43.818714 -12.978806
v 568.768433 45.261192 -12.785088
v 420.324768 41.354240 -5.297276
v 421.421906 39.773224 -11.776548
v 419.014740 67.325279 -11.383132
v 419.014740 67.325279 -5.175285
vt 0.755443 0.748846
vt 0.745927 0.290857
vt 0.819005 0.746037
vt 0.799965 0.286478
vt 0.868213 0.737061
vt 0.859190 0.283771
vt 0.924826 0.758144
vt 0.919973 0.288245
vt 0.979968 0.744466
vt 0.980019 0.287002
vt 0.764959 0.804769
vt 0.824570 0.795475
vt 0.741843 0.538706
vt 0.978603 0.534277
vt 0.932588 0.533488
vt 0.858051 0.531698
vt 0.810789 0.532990
vt 0.641338 0.536303
vt 0.633586 0.285965
vt 0.689339 0.534840
vt 0.693722 0.284441
vt 0.800457 0.536721
vt 0.756410 0.531958
vt 0.755637 0.284614
vt 0.816683 0.286388
vt 0.656142 0.791491
vt 0.646567 0.828725
vt 0.578856 0.536312
vt 0.578845 0.284989
vt 0.589664 0.808329
vt 0.593168 0.776502
vt 0.749161 0.773034
vt 0.781026 0.776105
vt 0.694117 0.798131
vt 0.747145 0.430974
vt 0.740807 0.064239
vt 0.760733 0.446584
vt 0.761553 0.062077
vt 0.842394 0.428107
vt 0.830076 0.425629
vt 0.827830 0.074780
vt 0.844197 0.077226
vt 0.732400 0.045155
vt 0.745637 0.836079
vt 0.733808 0.863670
vt 0.688562 0.429396
vt 0.674016 0.080825
vt 0.667922 0.065429
vt 0.667839 0.850916
vt 0.675134 0.830559
vt 0.837899 0.841277
vt 0.857124 0.831442
vt 0.771415 0.851581
vt 0.689440 0.513602
vt 0.687548 0.140289
vt 0.704808 0.513575
vt 0.707633 0.140076
vt 0.789533 0.511684
vt 0.773086 0.508808
vt 0.775063 0.145339
vt 0.796058 0.145599
vt 0.692743 0.120844
vt 0.691361 0.904724
vt 0.688391 0.929229
vt 0.625209 0.510686
vt 0.625736 0.144178
vt 0.625098 0.123194
vt 0.626621 0.936314
vt 0.625634 0.914385
vt 0.765893 0.914709
vt 0.787843 0.914947
vt 0.704762 0.925445
vn 0.040196 0.018023 0.999029
vn 0.040196 0.018023 0.999029
vn 0.041249 0.017717 0.998992
vn 0.041320 0.017696 0.998989
vn 0.996947 0.077438 0.009990
vn 0.996963 0.077160 0.010535
vn 0.996666 0.048998 0.065243
vn 0.996666 0.048998 0.065243
vn -0.027374 -0.000930 -0.999625
vn -0.028115 0.000875 -0.999604
vn -0.041161 0.032697 -0.998617
vn -0.041161 0.032697 -0.998617
vn -0.995011 -0.086875 0.049055
vn -0.994944 -0.087595 0.049138
vn -0.992473 -0.110961 0.051810
vn -0.992473 -0.110961 0.051810
vn 0.090246 0.995244 0.036680
vn 0.090246 0.995244 0.036680
vn 0.090246 0.995244 0.036680
vn 0.090246 0.995244 0.036680
vn -0.997220 -0.058775 0.045811
vn -0.997220 -0.058775 0.045811
vn -0.011689 -0.039081 -0.999168
vn -0.011689 -0.039081 -0.999168
vn 0.991522 0.114102 -0.062170
vn 0.991522 0.114102 -0.062170
vn 0.042448 0.017368 0.998948
vn 0.042448 0.017368 0.998948
vn 0.023888 0.019030 0.999534
vn 0.023888 0.019030 0.999534
vn 0.031094 0.010888 0.999457
vn 0.030788 0.011234 0.999463
vn 0.999606 -0.027310 -0.006446
vn 0.999603 -0.027216 -0.007299
vn 0.997251 -0.035122 0.065246
vn 0.997251 -0.035122 0.065246
vn -0.079449 0.040702 -0.996008
vn -0.081786 0.040949 -0.995808
vn -0.043396 0.036863 -0.998378
vn -0.043396 0.036863 -0.998378
vn -0.998348 0.022376 0.052928
vn -0.998414 0.020871 0.052285
vn -0.998922 0.006181 0.046002
vn -0.998922 0.006181 0.046002
vn -0.303598 0.941660 0.145272
vn -0.303598 0.941660 0.145272
vn -0.303598 0.941660 0.145272
vn -0.303598 0.941660 0.145272
vn -0.997059 0.044525 0.062379
vn -0.997059 0.044525 0.062379
vn -0.119964 0.044964 -0.991760
vn -0.119964 0.044964 -0.991760
vn 0.995090 -0.017181 -0.097474
vn 0.995090 -0.017181 -0.097474
vn 0.037606 0.003527 0.999286
vn 0.037606 0.003527 0.999286
vn -0.006266 -0.005707 0.999964
vn -0.006266 -0.005707 0.999964
vn 0.004867 -0.035738 0.999349
vn 0.004444 -0.034598 0.999391
vn 0.021965 0.999754 -0.002984
vn 0.047030 0.997504 0.052669
vn 0.059262 0.995040 0.079897
vn 0.059262 0.995040 0.079897
vn -0.003613 -0.003371 -0.999988
vn 0.000603 0.004931 -0.999988
vn -0.014037 -0.023904 -0.999616
vn -0.014037 -0.023904 -0.999616
vn -0.026108 -0.967387 0.251955
vn -0.034400 -0.968022 0.248494
vn -0.065634 -0.969713 0.235264
vn -0.065634 -0.969713 0.235264
vn 0.954967 -0.253011 0.154997
vn 0.954967 -0.253011 0.154997
vn 0.954967 -0.253011 0.154997
vn 0.954967 -0.253011 0.154997
vn -0.846700 -0.102301 0.522144
vn -0.846700 -0.102301 0.522144
vn -0.846700 -0.102301 0.522144
vn -0.846700 -0.102301 0.522143
vn -0.002897 -0.965191 0.261530
vn -0.002897 -0.965191 0.261530
vn 0.009548 0.022547 -0.999700
vn 0.009548 0.022547 -0.999700
vn 0.012875 0.999650 -0.023119
vn 0.012875 0.999650 -0.023119
vn 0.014088 -0.060592 0.998063
vn 0.014088 -0.060592 0.998063
vn -0.003885 0.013805 0.999897
vn -0.003885 0.013805 0.999897
vn -0.001009 0.025822 0.999666
vn -0.001169 0.025155 0.999683
vn -0.008242 0.999856 0.014850
vn -0.008212 0.999860 0.014606
vn -0.026539 0.986003 0.164602
vn -0.026539 0.986003 0.164602
vn -0.002586 0.022389 -0.999746
vn -0.001968 0.024197 -0.999705
vn -0.008700 0.004487 -0.999952
vn -0.008700 0.004487 -0.999952
vn 0.001674 -0.994617 0.103605
vn 0.006912 -0.994528 0.104246
vn 0.031563 -0.993734 0.107224
vn 0.031563 -0.993734 0.107224
vn 0.999306 -0.036771 -0.005957
vn 0.999306 -0.036771 -0.005957
vn 0.999306 -0.036771 -0.005957
vn 0.999306 -0.036771 -0.005957
vn -0.857890 0.004252 0.513815
vn -0.857890 0.004252 0.513815
vn -0.857890 0.004252 0.513815
vn -0.857890 0.004252 0.513815
vn -0.019725 -0.994695 0.100956
vn -0.019725 -0.994695 0.100956
vn 0.003852 0.041229 -0.999142
vn 0.003852 0.041229 -0.999142
vn 0.013216 0.987150 -0.159249
vn 0.013216 0.987150 -0.159249
vn 0.001434 0.036025 0.999350
vn 0.001434 0.036025 0.999350
s 1
g fence3
usemtl initialShadingGroup
f 2/2/1 4/4/2 12/17/3 9/13/4
s 2
f 11/16/5 12/17/6 4/4/7 6/6/8
s 3
f 10/15/9 11/16/10 6/6/11 8/8/12
s 4
f 9/14/13 10/15/14 8/8/15 2/10/16
s off
f 1/1/17 3/3/18 5/12/19 7/11/20
s 4
f 7/7/21 10/15/14 9/14/13 1/9/22
s 3
f 7/7/23 5/5/24 11/16/10 10/15/9
s 2
f 3/3/25 12/17/6 11/16/5 5/5/26
s 1
f 12/17/3 3/3/27 1/1/28 9/13/4
s 5
f 14/29/29 16/19/30 24/18/31 21/28/32
s 6
f 23/20/33 24/18/34 16/19/35 18/21/36
s 7
f 22/23/37 23/20/38 18/21/39 20/24/40
s 8
f 21/22/41 22/23/42 20/24/43 14/25/44
s off
f 13/31/45 15/26/46 17/27/47 19/30/48
s 8
f 19/32/49 22/23/42 21/22/41 13/33/50
s 7
f 19/32/51 17/34/52 23/20/38 22/23/37
s 6
f 15/26/53 24/18/34 23/20/33 17/34/54
s 5
f 24/18/31 15/26/55 13/31/56 21/28/32
s 9
f 26/47/57 28/36/58 36/35/59 33/46/60
s 10
f 35/37/61 36/35/62 28/36/63 30/38/64
s 11
f 34/40/65 35/37/66 30/38/67 32/41/68
s 12
f 33/39/69 34/40/70 32/41/71 26/42/72
s off
f 30/43/73 28/36/74 26/47/75 32/48/76
f 25/50/77 27/44/78 29/45/79 31/49/80
s 12
f 31/51/81 34/40/70 33/39/69 25/52/82
s 11
f 31/51/83 29/53/84 35/37/66 34/40/65
s 10
f 27/44/85 36/35/62 35/37/61 29/53/86
s 9
f 36/35/59 27/44/87 25/50/88 33/46/60
s 13
f 38/66/89 40/55/90 48/54/91 45/65/92
s 14
f 47/56/93 48/54/94 40/55/95 42/57/96
s 15
f 46/59/97 47/56/98 42/57/99 44/60/100
s 16
f 45/58/101 46/59/102 44/60/103 38/61/104
s off
f 42/62/105 40/55/106 38/66/107 44/67/108
f 37/69/109 39/63/110 41/64/111 43/68/112
s 16
f 43/70/113 46/59/102 45/58/101 37/71/114
s 15
f 43/70/115 41/72/116 47/56/98 46/59/97
s 14
f 39/63/117 48/54/94 47/56/93 41/72/118
s 13
f 48/54/91 39/63/119 37/69/120 45/65/92
