# This file uses centimeters as units for non-parametric coordinates.

mtllib fence02.mtl
g default
v 155.911438 150.361664 -12.797108
v 153.621429 -7.000000 -10.694469
v 177.099182 147.839294 -15.024277
v 176.702118 -7.000000 -12.661298
v 175.423126 152.687897 -27.202309
v 179.691330 -7.000000 -32.417191
v 155.911438 150.361664 -31.334452
v 153.621429 -7.000000 -30.874344
v 156.681427 75.536995 -13.089871
v 155.299866 74.908699 -28.478941
v 174.721375 76.218735 -28.768686
v 174.721375 76.218735 -12.800125
v -112.769829 155.262695 -12.411806
v -113.613243 -7.000000 -10.694469
v -85.358925 150.703995 -15.024277
v -95.566040 -7.000000 -12.661297
v -88.973167 153.345871 -27.202309
v -93.228714 -7.000000 -32.417191
v -112.769829 155.262695 -23.025217
v -113.613243 -7.000000 -30.874344
v -106.213577 75.913239 -13.839561
v -107.820862 75.300018 -28.478941
v -85.488556 75.954391 -28.768686
v -85.488556 75.954391 -12.800125
v -125.661781 117.177971 -7.409505
v 185.763855 124.091751 -4.812659
v -126.720436 134.503799 -4.963658
v 185.018555 142.352066 -5.116834
v -125.155693 136.736496 -12.907947
v 185.798309 140.647430 -13.434672
v -122.345802 115.159798 -13.309687
v 186.650024 124.705116 -11.499881
v 37.906502 122.514603 -6.158305
v 39.028259 120.950928 -10.915520
v 32.347824 140.783234 -10.256621
v 38.717285 138.108154 -5.562302
v -126.022926 50.458797 -4.095019
v 185.844940 44.636620 -6.295227
v -126.022881 68.833542 -6.111721
v 179.915070 65.150360 -5.962458
v -126.022964 67.385162 -11.239047
v 186.943512 66.536621 -12.919264
v -126.022926 50.458797 -12.978806
v 185.844940 46.141869 -12.785088
v 37.393448 42.814903 -5.297276
v 38.481842 41.227867 -11.776548
v 36.226517 63.528259 -11.383132
v 36.226517 63.528259 -5.175285
v 190.969742 91.530533 -4.889797
v 189.684723 111.331940 -3.639153
v 189.684723 111.331940 -13.434672
v 190.969742 91.530533 -12.184029
v 4.740578 63.710503 -1.127174
v 5.882957 64.779770 -7.710002
v 3.790817 82.165314 -9.223558
v 3.790817 80.374702 -4.028035
vt 0.594841 0.641926
vt 0.594724 0.222329
vt 0.652479 0.638324
vt 0.657030 0.221145
vt 0.684488 0.653136
vt 0.710344 0.220827
vt 0.738002 0.650469
vt 0.779814 0.227707
vt 0.787817 0.652737
vt 0.833282 0.235390
vt 0.600925 0.691445
vt 0.652073 0.673922
vt 0.608849 0.442726
vt 0.794947 0.453069
vt 0.753569 0.447489
vt 0.700758 0.446532
vt 0.657399 0.445329
vt 0.673542 0.487787
vt 0.661944 0.267461
vt 0.715650 0.485958
vt 0.715356 0.265672
vt 0.814026 0.484273
vt 0.774835 0.482057
vt 0.769633 0.260997
vt 0.823385 0.261434
vt 0.686207 0.684772
vt 0.686267 0.719316
vt 0.618474 0.487550
vt 0.613689 0.264216
vt 0.622307 0.728062
vt 0.613692 0.701132
vt 0.784750 0.697200
vt 0.813011 0.697805
vt 0.720535 0.690703
vt 0.805155 0.497859
vt 0.799097 0.119164
vt 0.819380 0.514145
vt 0.821046 0.116975
vt 0.883901 0.499518
vt 0.870837 0.497114
vt 0.862596 0.114909
vt 0.880002 0.116919
vt 0.794864 0.097508
vt 0.805746 0.926227
vt 0.807521 0.947891
vt 0.764853 0.501321
vt 0.751820 0.119392
vt 0.753498 0.101944
vt 0.751678 0.940561
vt 0.760411 0.924505
vt 0.882942 0.915159
vt 0.899526 0.922864
vt 0.827055 0.921989
vt 0.738225 0.491093
vt 0.740901 0.136257
vt 0.753542 0.491108
vt 0.758342 0.118915
vt 0.824929 0.488822
vt 0.808560 0.485794
vt 0.808403 0.123299
vt 0.824824 0.123539
vt 0.747957 0.112685
vt 0.740049 0.891466
vt 0.737531 0.904349
vt 0.687207 0.487557
vt 0.690305 0.121763
vt 0.697921 0.107219
vt 0.696345 0.912028
vt 0.694566 0.890211
vt 0.795020 0.890368
vt 0.816905 0.890935
vt 0.753160 0.891351
vt 0.721984 0.229843
vt 0.712306 0.688891
vt 0.714465 0.218763
vt 0.688446 0.688375
vt 0.763100 0.226216
vt 0.756592 0.211070
vt 0.640452 0.681808
vt 0.622736 0.680390
vt 0.715684 0.712516
vt 0.760596 0.685065
vt 0.763111 0.702657
vt 0.708601 0.230251
vt 0.665921 0.226758
vt 0.650036 0.222348
vn 0.040498 0.015011 0.999067
vn 0.040498 0.015011 0.999067
vn 0.044932 0.013887 0.998894
vn 0.044659 0.013956 0.998905
vn 0.999578 0.015431 0.024609
vn 0.999599 0.015143 0.023917
vn 0.995727 0.039826 0.083317
vn 0.995727 0.039826 0.083317
vn 0.017119 0.017055 -0.999708
vn 0.022496 0.015331 -0.999629
vn -0.041253 0.035725 -0.998510
vn -0.041253 0.035725 -0.998510
vn -0.999110 0.014943 0.039436
vn -0.999103 0.015552 0.039386
vn -0.998852 0.028782 0.038289
vn -0.998852 0.028782 0.038289
vn -0.002544 0.987744 0.156060
vn -0.002544 0.987744 0.156060
vn -0.002544 0.987744 0.156060
vn -0.002544 0.987744 0.156060
vn -0.999172 -0.000359 0.040695
vn -0.999172 -0.000359 0.040695
vn 0.099071 -0.009300 -0.995037
vn 0.099071 -0.009300 -0.995037
vn 0.997790 -0.021029 -0.063038
vn 0.997790 -0.021029 -0.063038
vn 0.049916 0.012623 0.998674
vn 0.049916 0.012623 0.998674
vn 0.023890 0.017273 0.999565
vn 0.023890 0.017273 0.999565
vn 0.029102 0.011321 0.999512
vn 0.028896 0.011556 0.999516
vn 0.998382 -0.055333 -0.013108
vn 0.998404 -0.054695 -0.014048
vn 0.992039 -0.107912 0.064906
vn 0.992039 -0.107912 0.064906
vn -0.069249 0.039684 -0.996810
vn -0.070680 0.039662 -0.996710
vn -0.043440 0.040067 -0.998252
vn -0.043440 0.040067 -0.998252
vn -0.998465 0.014727 0.053392
vn -0.998404 0.020534 0.052613
vn -0.995821 0.079717 0.044564
vn -0.995821 0.079717 0.044564
vn 0.136993 0.986235 0.092597
vn 0.136993 0.986235 0.092597
vn 0.136993 0.986235 0.092597
vn 0.136993 0.986235 0.092597
vn -0.995077 -0.074677 0.065148
vn -0.995077 -0.074677 0.065148
vn -0.095244 0.039271 -0.994679
vn -0.095244 0.039271 -0.994679
vn 0.991882 0.021331 -0.125363
vn 0.991882 0.021331 -0.125363
vn 0.033275 0.006553 0.999425
vn 0.033275 0.006553 0.999425
vn -0.005918 -0.008608 0.999946
vn -0.005918 -0.008608 0.999945
vn -0.002715 -0.050147 0.998738
vn -0.002406 -0.054136 0.998531
vn -0.022126 0.949998 0.311471
vn -0.015899 0.988077 0.153139
vn -0.012932 0.996720 0.079891
vn -0.012932 0.996720 0.079891
vn 0.000308 -0.007417 -0.999973
vn 0.005464 0.005441 -0.999970
vn -0.012028 -0.038169 -0.999199
vn -0.012028 -0.038169 -0.999199
vn 0.024306 -0.972876 0.230048
vn 0.022881 -0.979909 0.198129
vn 0.017752 -0.996151 0.085836
vn 0.017752 -0.996151 0.085836
vn 0.992897 0.053324 0.106358
vn 0.992897 0.053324 0.106358
vn 0.992897 0.053324 0.106358
vn 0.992897 0.053324 0.106358
vn -0.940513 -0.069178 -0.332640
vn -0.940513 -0.069178 -0.332640
vn -0.940513 -0.069178 -0.332640
vn -0.940513 -0.069178 -0.332640
vn 0.028630 -0.943847 0.329140
vn 0.028630 -0.943847 0.329140
vn 0.014919 0.029019 -0.999468
vn 0.014919 0.029019 -0.999468
vn -0.024355 0.928750 0.369906
vn -0.024355 0.928750 0.369906
vn 0.000525 -0.092007 0.995758
vn 0.000525 -0.092007 0.995758
vn 0.006227 -0.009958 0.999931
vn 0.006227 -0.009958 0.999931
vn 0.004368 0.021284 0.999764
vn 0.004524 0.018660 0.999816
vn 0.006193 0.999907 -0.012130
vn 0.006268 0.999902 -0.012514
vn -0.014888 0.995188 0.096846
vn -0.014888 0.995188 0.096846
vn -0.002135 0.028508 -0.999591
vn -0.001161 0.031875 -0.999491
vn -0.008692 0.005836 -0.999945
vn -0.008692 0.005836 -0.999945
vn -0.023230 -0.997626 0.064823
vn -0.015459 -0.998351 0.055285
vn 0.022819 -0.999706 0.008219
vn 0.022819 -0.999706 0.008219
vn 0.872672 0.100743 0.477801
vn 0.872672 0.100743 0.477801
vn 0.872672 0.100743 0.477801
vn 0.872672 0.100743 0.477801
vn -1.000000 0.000001 0.000006
vn -1.000000 0.000001 0.000006
vn -1.000000 0.000001 0.000006
vn -1.000000 0.000001 0.000006
vn -0.051139 -0.993769 0.099036
vn -0.051139 -0.993769 0.099036
vn 0.005421 0.054610 -0.998493
vn 0.005421 0.054610 -0.998493
vn 0.028305 0.991538 -0.126696
vn 0.028305 0.991538 -0.126696
vn 0.002744 0.048498 0.998820
vn 0.002744 0.048498 0.998820
vn 0.001898 0.045324 0.998971
vn 0.001898 0.045324 0.998971
vn 0.001898 0.045324 0.998971
vn 0.001898 0.045324 0.998971
vn -0.157369 0.980570 0.117126
vn -0.157369 0.980569 0.117126
vn -0.157369 0.980570 0.117126
vn -0.157369 0.980570 0.117126
vn -0.012007 -0.075207 -0.997096
vn -0.012007 -0.075207 -0.997096
vn -0.012007 -0.075207 -0.997096
vn -0.012007 -0.075207 -0.997096
vn 0.143708 -0.987531 -0.064263
vn 0.143708 -0.987531 -0.064263
vn 0.143708 -0.987531 -0.064263
vn 0.143708 -0.987531 -0.064263
vn 0.997901 0.064760 0.000000
vn 0.997901 0.064760 0.000000
vn 0.997901 0.064760 0.000000
vn 0.997901 0.064760 0.000000
vn -0.987206 -0.103877 -0.120971
vn -0.987206 -0.103877 -0.120971
vn -0.987206 -0.103877 -0.120971
vn -0.987206 -0.103877 -0.120971
s 1
g fence2
usemtl initialShadingGroup
f 2/2/1 4/4/2 12/17/3 9/13/4
s 2
f 11/16/5 12/17/6 4/4/7 6/6/8
s 3
f 10/15/9 11/16/10 6/6/11 8/8/12
s 4
f 9/14/13 10/15/14 8/8/15 2/10/16
s off
f 1/1/17 3/3/18 5/12/19 7/11/20
s 4
f 7/7/21 10/15/14 9/14/13 1/9/22
s 3
f 7/7/23 5/5/24 11/16/10 10/15/9
s 2
f 3/3/25 12/17/6 11/16/5 5/5/26
s 1
f 12/17/3 3/3/27 1/1/28 9/13/4
s 5
f 14/29/29 16/19/30 24/18/31 21/28/32
s 6
f 23/20/33 24/18/34 16/19/35 18/21/36
s 7
f 22/23/37 23/20/38 18/21/39 20/24/40
s 8
f 21/22/41 22/23/42 20/24/43 14/25/44
s off
f 13/31/45 15/26/46 17/27/47 19/30/48
s 8
f 19/32/49 22/23/42 21/22/41 13/33/50
s 7
f 19/32/51 17/34/52 23/20/38 22/23/37
s 6
f 15/26/53 24/18/34 23/20/33 17/34/54
s 5
f 24/18/31 15/26/55 13/31/56 21/28/32
s 9
f 26/47/57 28/36/58 36/35/59 33/46/60
s 10
f 35/37/61 36/35/62 28/36/63 30/38/64
s 11
f 34/40/65 35/37/66 30/38/67 32/41/68
s 12
f 33/39/69 34/40/70 32/41/71 26/42/72
s off
f 30/43/73 28/36/74 26/47/75 32/48/76
f 25/50/77 27/44/78 29/45/79 31/49/80
s 12
f 31/51/81 34/40/70 33/39/69 25/52/82
s 11
f 31/51/83 29/53/84 35/37/66 34/40/65
s 10
f 27/44/85 36/35/62 35/37/61 29/53/86
s 9
f 36/35/59 27/44/87 25/50/88 33/46/60
s 13
f 38/66/89 40/55/90 48/54/91 45/65/92
s 14
f 47/56/93 48/54/94 40/55/95 42/57/96
s 15
f 46/59/97 47/56/98 42/57/99 44/60/100
s 16
f 45/58/101 46/59/102 44/60/103 38/61/104
s off
f 42/62/105 40/55/106 38/66/107 44/67/108
f 37/69/109 39/63/110 41/64/111 43/68/112
s 16
f 43/70/113 46/59/102 45/58/101 37/71/114
s 15
f 43/70/115 41/72/116 47/56/98 46/59/97
s 14
f 39/63/117 48/54/94 47/56/93 41/72/118
s 13
f 48/54/91 39/63/119 37/69/120 45/65/92
s off
f 49/82/121 50/74/122 56/73/123 53/77/124
f 55/84/125 56/73/126 50/74/127 51/76/128
f 54/85/129 55/84/130 51/76/131 52/79/132
f 53/86/133 54/85/134 52/79/135 49/80/136
f 51/81/137 50/74/138 49/82/139 52/83/140
f 55/75/141 54/78/142 53/77/143 56/73/144
